<svg xmlns="http://www.w3.org/2000/svg" viewBox="0 0 512 512"><path d="M450.08 87.36C426.507 138.507 413.12 187.893 409.973 234.881H512.427C507.787 178.613 485.067 127.52 450.08 87.36ZM62.347 425.067C85.867 373.92 99.307 324.48 102.453 277.547H0C4.64 333.813 27.36 384.907 62.347 425.067ZM277.547 234.88H367.2C370.613 177.653 387.521 117.759 417.654 56.159 378.721 24.693 330.4 4.373 277.547 0.053V234.88ZM62.347 87.36C27.36 127.52 4.64 178.613 0 234.88H102.453C100.373 204.319 93.973 172.587 83.307 140.267 77.493 122.773 70.56 105.227 62.347 87.36ZM123.84 126.88C136 163.627 143.147 199.84 145.227 234.88H234.88V0C182.027 4.373 133.707 24.693 94.773 56.16 106.453 80.107 116.053 103.467 123.84 126.88ZM512.427 277.547H409.973C413.813 333.013 431.893 384.053 450.4 424.693 485.227 384.587 507.787 333.653 512.427 277.547ZM234.88 277.547H145.227C141.813 334.719 124.907 394.613 94.773 456.267 133.707 487.733 182.027 508.053 234.88 512.427V277.547ZM277.547 512.427C330.507 508.053 378.933 487.681 417.92 456.053 395.52 409.387 371.413 347.147 367.199 277.547H277.547V512.427Z"/></svg>