<svg xmlns="http://www.w3.org/2000/svg" viewBox="0 0 512 512"><path d="M370.759 90.035H171.314V28.847C171.314 23.991 175.264 20.043 180.122 20.043 184.978 20.043 188.93 23.991 188.93 28.847 188.93 34.382 193.416 38.868 198.951 38.868 204.485 38.868 208.973 34.382 208.973 28.847 208.973 12.94 196.03 0 180.122 0 164.214 0 151.271 12.94 151.271 28.847V46.765H136.389C130.853 46.765 126.367 51.251 126.367 56.786S130.853 66.808 136.389 66.808H151.271V90.035H142.965C134.315 90.035 127.278 97.072 127.278 105.722V283.874C127.278 292.523 134.315 299.56 142.965 299.56 277.22 299.56 386.445 212.604 386.445 105.72 386.447 97.072 379.408 90.035 370.759 90.035ZM234.055 299.908C204.326 310.225 171.538 315.962 137.094 315.962 134.742 315.962 132.521 315.428 130.518 314.496V506.235C130.518 509.868 133.461 512.811 137.094 512.811H258.068C258.079 512.814 258.094 512.814 258.104 512.811 261.738 512.811 264.68 509.868 264.68 506.235 264.68 505.758 264.631 505.295 264.535 504.847L234.055 299.908Z"/></svg>