<svg xmlns="http://www.w3.org/2000/svg" viewBox="0 0 512 512"><path d="M431.353 31.06H409.434C399.694 31.06 391.378 24.933 388.079 16.34H431.353C435.867 16.34 439.524 12.683 439.524 8.17S435.867 0 431.353 0H337.678C333.165 0 329.508 3.657 329.508 8.17 329.508 20.792 319.24 31.06 306.618 31.06H264.17V28.336C264.17 23.823 260.513 20.166 256 20.166 251.488 20.166 247.83 23.823 247.83 28.336V31.06H205.382C192.76 31.06 182.492 20.792 182.492 8.17 182.492 3.657 178.834 0 174.322 0H80.647C76.134 0 72.476 3.657 72.476 8.17S76.134 16.34 80.647 16.34H123.923C120.623 24.933 112.307 31.06 102.567 31.06H80.647C76.134 31.06 72.476 34.717 72.476 39.23S76.134 47.4 80.647 47.4H102.567C121.397 47.4 137.165 34.063 140.935 16.34H167.009C170.777 34.065 186.552 47.4 205.383 47.4H247.83V85.528H206.979C193.463 85.528 182.468 96.524 182.468 110.039S193.463 134.549 206.979 134.549C211.491 134.549 215.149 130.892 215.149 126.379S211.491 118.209 206.979 118.209C202.473 118.209 198.809 114.544 198.809 110.039S202.473 101.868 206.979 101.868H231.489V151.008C212.185 160.205 198.809 179.903 198.809 202.67V336.91H163.404C158.892 336.91 155.234 340.567 155.234 345.08S158.892 353.251 163.404 353.251H206.979C211.491 353.251 215.149 349.594 215.149 345.08V202.67C215.149 185.034 226.384 169.974 242.071 164.267 242.095 164.259 242.118 164.251 242.141 164.243 246.47 162.677 251.136 161.819 255.999 161.819 260.861 161.819 265.525 162.677 269.855 164.242 269.88 164.25 269.904 164.259 269.929 164.267 285.616 169.974 296.851 185.034 296.851 202.67V345.08C296.851 349.594 300.508 353.251 305.021 353.251H348.596C353.109 353.251 356.766 349.594 356.766 345.08S353.109 336.91 348.596 336.91H313.191V202.67C313.191 179.903 299.815 160.205 280.511 151.008V101.868H305.021C309.527 101.868 313.191 105.533 313.191 110.039S309.527 118.209 305.021 118.209C300.508 118.209 296.851 121.866 296.851 126.379S300.508 134.549 305.021 134.549C318.536 134.549 329.532 123.553 329.532 110.039S318.536 85.528 305.021 85.528H264.17V47.4H306.618C325.449 47.4 341.224 34.065 344.993 16.34H371.067C374.837 34.063 390.605 47.4 409.436 47.4H431.355C435.868 47.4 439.525 43.743 439.525 39.23S435.867 31.06 431.353 31.06ZM264.17 146.071C261.5 145.688 258.775 145.479 256 145.479S250.5 145.688 247.83 146.071V101.868H264.17V146.071Z"/><path d="M256 178.16C242.484 178.16 231.489 189.156 231.489 202.67V487.489C231.489 501.004 242.484 512 256 512 269.515 512 280.511 501.004 280.511 487.489V202.67C280.511 189.156 269.515 178.16 256 178.16ZM264.17 487.489C264.17 491.995 260.506 495.66 256 495.66S247.83 491.995 247.83 487.489V202.67C247.83 198.165 251.494 194.5 256 194.5S264.17 198.165 264.17 202.67V487.489Z"/></svg>