<svg xmlns="http://www.w3.org/2000/svg" viewBox="0 0 512 512"><path d="M406.879 244.579C348.912 244.579 301.756 291.736 301.756 349.697 301.756 407.662 348.913 454.818 406.879 454.818 464.844 454.818 512 407.66 512 349.697 512 291.736 464.842 244.579 406.879 244.579ZM406.879 423.381C366.251 423.381 333.196 390.329 333.196 349.698 333.196 309.07 366.251 276.016 406.879 276.016 447.505 276.016 480.56 309.07 480.56 349.698 480.56 390.329 447.505 423.381 406.879 423.381ZM105.123 244.579C47.156 244.579 0 291.736 0 349.697 0 407.662 47.158 454.818 105.123 454.818 163.085 454.818 210.242 407.66 210.242 349.697 210.243 291.736 163.085 244.579 105.123 244.579ZM105.123 423.381C64.492 423.381 31.44 390.329 31.44 349.698 31.44 309.07 64.492 276.016 105.123 276.016 145.749 276.016 178.804 309.07 178.804 349.698 178.805 390.329 145.751 423.381 105.123 423.381Z"/><path d="M266.559 238.301L237.288 215.589 295.035 186.044 343.747 226.675C347.028 229.413 351.194 231.156 355.792 231.396L402.211 233.836C413.238 234.427 423.202 226.675 425.104 215.526 427.154 203.524 419.081 195.752 407.078 193.703L359.595 186.613C359.595 186.613 324.982 138.87 317.15 130.689 293.766 106.258 279.752 92.529 252.857 105.816L170.784 146.366C147.167 158.249 131.712 189.747 145.001 216.639 151.539 229.871 161.803 236.551 176.796 246.282L224.308 275.262 229.956 366.064C230.761 378.629 241.25 388.595 254 388.514 267.216 388.431 277.864 377.645 277.778 364.423L277.097 258.714C276.996 250.951 273.343 243.189 266.559 238.301Z"/><path d="M337.319 143.51C342.535 147.02 348.443 149.45 354.61 150.655L354.675 150.667C369.953 153.632 386.022 148.712 397.041 137.722 408.218 126.568 413.127 110.071 409.867 94.62 406.695 79.567 396.055 66.682 381.846 60.767 367.305 54.722 350.351 56.398 337.293 65.201 324.234 74.001 316.32 89.087 316.465 104.834 316.612 120.222 324.559 134.922 337.319 143.51Z"/></svg>