<svg xmlns="http://www.w3.org/2000/svg" viewBox="0 0 512 512"><path d="M141.363 410.107H115.06V239.25C115.06 232.883 109.879 227.701 103.511 227.701H67.584C61.217 227.701 56.035 232.883 56.035 239.25V410.107H29.731C23.363 410.107 18.182 415.288 18.182 421.656V447.96C18.182 454.327 23.363 459.509 29.731 459.509H141.363C147.731 459.509 152.912 454.327 152.912 447.96V421.656C152.912 415.288 147.732 410.107 141.363 410.107ZM482.962 410.107H456.658V239.25C456.658 232.883 451.476 227.701 445.109 227.701H409.182C402.814 227.701 397.633 232.883 397.633 239.25V410.107H371.328C364.961 410.107 359.779 415.288 359.779 421.656V447.96C359.779 454.327 364.961 459.509 371.328 459.509H482.961C489.328 459.509 494.51 454.327 494.51 447.96V421.656C494.511 415.288 489.33 410.107 482.962 410.107ZM6.96 122.472C6.96 122.472 6.96 122.472 6.96 122.472 8.358 122.472 11.016 122.02 13.14 119.005L50.889 65.392C52.677 62.854 52.953 59.814 51.627 57.262 50.303 54.71 47.658 53.185 44.554 53.185H8.982C4.029 53.185 0 57.214 0 62.168V114.845C0 119.798 3.585 122.472 6.96 122.472ZM144.614 204.275C145.903 206.892 148.561 208.452 151.721 208.452H232.398C235.827 208.452 239.531 206.625 241.617 203.907L347.82 65.541C349.745 63.032 350.123 59.975 348.834 57.361 347.544 54.746 344.887 53.185 341.726 53.185H261.048C257.622 53.185 253.917 55.011 251.83 57.73L145.627 196.095C143.704 198.601 143.324 201.66 144.614 204.275ZM293.2 204.275C294.49 206.892 297.147 208.452 300.309 208.452H380.984C384.412 208.452 388.118 206.625 390.203 203.907L496.406 65.541C498.33 63.032 498.71 59.975 497.42 57.361 496.131 54.746 493.473 53.185 490.313 53.185H409.636C406.21 53.185 402.505 55.011 400.417 57.73L294.215 196.095C292.29 198.601 291.911 201.66 293.2 204.275ZM93.03 203.907L199.233 65.541C201.158 63.034 201.537 59.975 200.247 57.361 198.958 54.746 196.301 53.185 193.141 53.185H112.464C109.043 53.185 105.341 55.005 103.249 57.714L2.904 187.782C1.166 190.034 0 193.456 0 196.3V199.471C0 204.424 4.029 208.453 8.982 208.453H83.811C87.24 208.452 90.945 206.625 93.03 203.907ZM505.634 124.619C504.343 124.619 501.855 125.008 499.699 127.609L443.026 195.965C440.974 198.439 440.5 201.512 441.755 204.184 443.011 206.857 445.679 208.452 448.893 208.452H503.71C508.664 208.452 512.693 204.423 512.693 199.47V132.294C512.693 127.308 509.056 124.619 505.634 124.619ZM375.06 333.339V317.081C375.06 307.883 367.576 300.399 358.378 300.399H154.315C145.117 300.399 137.633 307.883 137.633 317.081V333.339C137.633 342.538 145.117 350.021 154.315 350.021H358.378C367.578 350.021 375.06 342.538 375.06 333.339Z"/></svg>