<svg xmlns="http://www.w3.org/2000/svg" viewBox="0 0 512 512"><path d="M200 76.2C219.2 76.2 234.8 60.6 234.8 41.4 234.8 22.2 219.2 6.6 200 6.6 180.8 6.6 165.2 22.2 165.2 41.4 165.4 60.6 180.8 76.2 200 76.2ZM458.6 176.4L421.8 169.4 400.2 212C403.6 212.8 407.2 213.2 411 213.2 434 213.2 453.2 197.6 458.6 176.4ZM5.6 248.4C5.6 220.2 28.4 197.2 56.8 197.2H164.8V119.8C164.8 100.6 180.4 85 199.6 85S234.4 100.6 234.4 119.8V131.8L285.8 145C294.8 147 300.6 156 298.4 165 296.4 174.2 287.4 179.8 278.2 177.6L234.2 167.2V197.2H286L427.6 50.8 423.4 88.8 493.2 135.2C504.6 141.8 508.8 156.6 502.2 168.2 497 177.4 486.8 181.8 477 180L471.4 179C464.6 206.2 440.2 226.2 411 226.2 405.2 226.2 399.6 225.4 394.4 224L341.6 332V480C341.6 492.6 331.2 503 318.4 503 305.8 503 295.4 492.6 295.4 480V328.6H179L158.2 364 201.8 468C208.2 479.2 204.2 493.2 193.2 499.4 182 505.8 168 501.8 161.6 490.8L110.6 370.8V332.6L88 368.4V479.8C88 492.4 77.8 502.8 65 502.8 52.4 502.8 41.8 492.4 41.8 479.8V351.2L60.8 321.4V220.4L42 249.4V333.4H5.6V248.4Z"/></svg>