<svg xmlns="http://www.w3.org/2000/svg" viewBox="0 0 512 512"><path d="M-1869.4 2078.8C-1869.8 2078.8-1870 2078.8-1870.4 2079-1870.6 2079-1870.6 2079-1870.8 2078.8L-1917.6 2085.8-1944.2 2027.2C-1947.8 2020-1952.2 2014-1957.6 2009.4-1959.8 2007.2-1962.6 2005.2-1965.4 2003.4-1968.4 2001.8-1971.4 2000.6-1974.8 2000-1983.4 1998-1991.2 1999.2-1998.4 2003.4L-2057 2030.8C-2061 2033.4-2064.8 2034.4-2065.8 2035-2071.8 2039.2-2072.8 2041.4-2073.6 2042.8L-2103.2 2099.4C-2103.4 2100-2103.6 2100.6-2103.8 2101-2104.8 2103.2-2105.6 2105.6-2105.6 2108.2-2105.6 2110.8-2104.8 2113.4-2103.8 2115.6-2102.4 2119.2-2099.8 2121.6-2096.4 2122.6-2094.4 2123.6-2092 2124.2-2089.6 2124.2-2083.2 2124.2-2077.8 2120.4-2075.2 2115.2-2075 2114.8-2074.8 2114.6-2074.6 2114.2-2056.2 2079.8-2047 2062.4-2047 2062L-2015.6 2054.6-2053.2 2212.8-2125 2212.2C-2125.2 2212.2-2125.2 2212.2-2125.4 2212.2-2125.6 2212.2-2125.6 2212.2-2125.8 2212.2-2135.2 2212.2-2143 2219.8-2143 2229.4-2143 2238.2-2136.4 2245.2-2128 2246.4V2246.6L-2108 2246.6C-2092.4 2247.4-2046.6 2249.4-2032.6 2247.8-2032.2 2247.8-2031.8 2248-2031.2 2248-2023.4 2248-2017 2242.4-2015.6 2235.2L-2004.8 2203.6-2004.8 2203.6C-1997.6 2183-1992.8 2162.8-1992.8 2162.8-1974 2182.6-1960 2195.4-1947.2 2208.8L-1925.2 2281-1920.6 2298.4-1920.4 2298.4C-1918 2306-1911 2311.6-1902.6 2311.6-1892.2 2311.6-1883.8 2303.2-1883.8 2292.8-1883.8 2291.4-1884 2289.8-1884.4 2288.4L-1885.8 2283C-1885.8 2283-1885.8 2282.8-1885.8 2282.8L-1889.8 2267.8-1893.8 2253-1893.8 2253-1910 2193C-1912.2 2187.4-1914.2 2182-1918.8 2176.8-1918.8 2176.8-1963.8 2126.8-1965 2126.2L-1954.8 2077.8-1940.6 2108C-1940.4 2108.2-1940.2 2108.6-1940 2108.8-1939 2110.2-1938.2 2111.4-1937.4 2112.2-1934.6 2115-1930.8 2116.6-1926.8 2116.6-1926.6 2116.6-1926.6 2116.6-1926.4 2116.6-1925.2 2116.6-1924 2116.4-1922.8 2116.2L-1870.2 2110.4C-1870 2110.4-1869.8 2110.4-1869.8 2110.4-1868.4 2110.4-1867.2 2110.2-1866 2109.8L-1865.2 2109.8C-1865 2109.8-1865 2109.6-1864.8 2109.6-1858.6 2107.4-1854 2101.6-1854 2094.8-1853.6 2086-1860.6 2078.8-1869.4 2078.8ZM-1968.4 1990.2C-1959.6 1990.2-1952 1987-1945.8 1980.8-1939.6 1974.6-1936.4 1967.2-1936.4 1958.6-1936.4 1949.8-1939.6 1942.2-1945.8 1936-1952 1929.8-1959.6 1926.6-1968.4 1926.6-1977 1926.6-1984.4 1929.8-1990.6 1936-1996.8 1942.2-2000 1949.8-2000 1958.6-2000 1967.2-1996.8 1974.6-1990.6 1980.8-1984.4 1987.2-1977 1990.2-1968.4 1990.2ZM-1794.4 1897.2V2290L-1649.2 2353.6V1850.4L-1794.4 1897.2ZM-1772.2 2111.6C-1775 2111.6-1777.4 2102.8-1777.4 2092S-1775 2072.4-1772.2 2072.4C-1769.4 2072.4-1767 2081.2-1767 2092S-1769.2 2111.6-1772.2 2111.6Z"/></svg>