<svg xmlns="http://www.w3.org/2000/svg" viewBox="0 0 512 512"><path d="M260.192 285.04C260.192 308.278 253.552 323.568 243.996 342.278 226.996 370.846 216.03 387.746 211.002 392.676L209.794 393.984C201.546 401.83 192.392 405.954 182.432 405.954 168.752 405.954 157.888 400.12 150.04 390.06H149.64C141.694 400.12 131.03 405.954 117.35 405.954 107.392 405.954 98.338 401.73 89.988 393.882L88.78 392.674C83.85 387.744 72.786 370.946 55.786 342.276 46.23 323.566 39.59 308.276 39.59 285.038 39.59 267.232 45.928 251.942 58.502 239.268 71.176 226.594 86.468 220.356 104.272 220.356 122.178 220.356 137.066 226.09 149.54 239.168H149.942C162.416 226.09 177.504 220.356 195.41 220.356S228.506 226.592 241.18 239.268C253.856 251.944 260.192 267.134 260.192 285.04ZM244.702 289.668C245.306 276.892 240.678 264.52 231.624 254.964 221.966 244.804 208.386 238.97 194.304 238.97 190.884 238.97 188.168 241.686 188.168 245.106S190.884 251.242 194.304 251.242C204.966 251.242 215.328 255.668 222.672 263.414 229.512 270.556 232.932 279.61 232.43 289.066 232.028 297.416 229.11 307.274 223.678 318.238 222.17 321.256 223.476 324.878 226.494 326.386 227.4 326.788 228.304 326.99 229.21 326.99 231.524 326.99 233.636 325.782 234.742 323.57 240.878 311.094 244.198 299.626 244.702 289.668ZM187.06 207.28C179.516 212.612 149.84 231.222 149.84 231.222L134.046 167.344 147.224 157.988 155.876 195.912C157.888 173.782 171.568 163.118 204.564 151.952 208.488 179.718 205.068 194.104 187.06 207.28ZM397.216 182.442C393.704 178.786 393.82 172.974 397.476 169.46S406.944 166.064 410.458 169.72 413.854 179.188 410.198 182.702 400.728 186.098 397.216 182.442ZM458.526 165.274C462.182 161.762 462.3 155.95 458.786 152.292S449.462 148.518 445.804 152.032C442.148 155.544 442.03 161.356 445.544 165.014S454.868 168.788 458.526 165.274ZM343.766 113.55C347.422 110.038 347.54 104.226 344.026 100.568 340.514 96.912 334.702 96.794 331.044 100.308S327.27 109.632 330.784 113.29 340.11 117.064 343.766 113.55ZM478.188 120.216C481.844 116.704 481.962 110.892 478.448 107.234S469.124 103.46 465.466 106.974 461.692 116.298 465.206 119.956C468.72 123.612 474.532 123.728 478.188 120.216ZM408.548 49.196C412.204 45.684 412.322 39.872 408.808 36.214 405.296 32.558 399.484 32.44 395.826 35.954S392.052 45.278 395.566 48.936C399.08 52.592 404.89 52.708 408.548 49.196ZM459.714 70.064C463.37 66.552 463.488 60.74 459.974 57.082 456.462 53.426 450.65 53.308 446.992 56.822S443.218 66.146 446.732 69.804C450.246 73.46 456.058 73.576 459.714 70.064ZM364.872 68.522C368.528 65.01 368.646 59.198 365.132 55.54 361.62 51.884 355.808 51.766 352.15 55.28S348.376 64.604 351.89 68.262 361.214 72.034 364.872 68.522ZM380.358 123.664L347.622 155.112 344.462 168.756 358.222 166.146 390.958 134.698C400.232 139.934 412.522 138.738 420.982 130.61 431.282 120.716 431.6 104.85 421.706 94.55S395.946 83.932 385.646 93.826C377.186 101.956 375.146 113.82 380.358 123.664ZM507.936 109.44C507.936 152.784 481.534 190.136 444 206.274V238H413.536V415.554C413.536 449.728 385.992 477.27 351.818 477.27H299.578V499.632H4V430H300V456.968L353.35 456.868C376.302 456.868 394.664 438.506 394.664 415.554V238H364V206.372C326.344 190.29 299.834 152.872 299.834 109.44 299.834 51.294 346.76 4.368 404.906 4.368 462.542 4.368 509.978 51.292 507.936 109.44ZM483.494 68.204C460.744 24.844 407.03 8.1 363.67 30.85 320.31 53.6 303.566 107.314 326.316 150.674 349.066 194.034 402.78 210.778 446.14 188.028 489.5 165.278 506.244 111.564 483.494 68.204Z"/></svg>