<svg xmlns="http://www.w3.org/2000/svg" viewBox="0 0 512 512"><path d="M221.204 203.28C221.204 182.969 237.67 166.503 257.988 166.503 278.299 166.503 294.772 182.969 294.772 203.28 294.772 223.599 278.306 240.065 257.988 240.065 237.67 240.065 221.204 223.599 221.204 203.28L221.204 203.28ZM366.219 149.598C359.536 147.051 352.073 150.385 349.519 157.054L324.377 222.776 275.838 257.105C275.696 257.099 275.568 257.063 275.434 257.063H258.861 242.289C242.154 257.063 242.027 257.099 241.885 257.105L193.346 222.776 168.203 157.054C165.649 150.385 158.186 147.051 151.504 149.598 144.835 152.152 141.493 159.629 144.047 166.298L170.594 235.687C171.502 238.078 173.113 240.15 175.205 241.625L232.236 281.964V392.607C232.264 396.302 233.896 405.086 229.661 413.776L188.308 493.381C185.016 499.716 187.485 507.52 193.828 510.819 195.729 511.805 197.765 512.28 199.772 512.28 204.448 512.28 208.959 509.733 211.258 505.299L256.541 418.139C257.307 418.209 258.08 418.266 258.861 418.266S260.414 418.209 261.181 418.139L306.464 505.299C308.762 509.733 313.274 512.28 317.949 512.28 319.957 512.28 321.993 511.804 323.894 510.819 330.237 507.52 332.706 499.717 329.413 493.381L288.06 413.776C283.819 405.086 285.457 396.302 285.485 392.607V281.964L342.516 241.625C344.609 240.15 346.22 238.079 347.128 235.687L373.675 166.298C376.23 159.629 372.888 152.152 366.219 149.598ZM371.469 77.619V6.562C371.469 2.937 368.539 0 364.914 0S358.352 2.937 358.352 6.562V77.619C343.702 80.656 332.663 93.653 332.663 109.189 332.663 126.967 347.129 141.44 364.914 141.44 382.692 141.44 397.164 126.967 397.164 109.189 397.164 93.652 386.119 80.655 371.469 77.619ZM364.914 128.322C354.365 128.322 345.78 119.738 345.78 109.188 345.78 98.646 354.365 90.062 364.914 90.062S384.041 98.645 384.041 109.188C384.041 119.738 375.463 128.322 364.914 128.322ZM153.929 77.619V6.562C153.929 2.937 150.992 0 147.367 0S140.805 2.937 140.805 6.562V77.619C126.162 80.656 115.116 93.653 115.116 109.189 115.116 126.967 129.588 141.44 147.366 141.44 165.152 141.44 179.617 126.967 179.617 109.189 179.617 93.652 168.579 80.655 153.929 77.619ZM147.367 128.322C136.818 128.322 128.233 119.738 128.233 109.188 128.233 98.646 136.818 90.062 147.367 90.062S166.501 98.645 166.501 109.188C166.5 119.738 157.916 128.322 147.367 128.322Z"/></svg>