<svg xmlns="http://www.w3.org/2000/svg" viewBox="0 0 512 512"><path d="M505.461 496.59L473.056 311.246C471.904 304.655 466.181 299.846 459.489 299.846H304.815C298.123 299.846 292.401 304.655 291.249 311.246L258.844 496.59C257.533 504.082 262.546 511.217 270.038 512.528 277.528 513.845 284.667 508.826 285.976 501.334L316.388 327.392H447.917L478.33 501.334C479.499 508.024 485.313 512.737 491.88 512.736 492.666 512.736 493.466 512.669 494.268 512.528 501.758 511.217 506.77 504.082 505.461 496.59ZM357.847 272.841H406.455C406.455 259.44 395.552 248.537 382.151 248.537 368.75 248.537 357.847 259.44 357.847 272.841Z"/><path d="M382.151 229.094C406.274 229.094 425.898 248.719 425.898 272.841H460.677C464.421 272.841 467.858 270.765 469.6 267.452L474.287 258.542C476.602 254.14 475.363 248.709 471.367 245.747L462.647 239.285C459.98 237.309 458.457 234.146 458.574 230.828L458.958 219.982C459.134 215.011 455.661 210.656 450.775 209.721L440.116 207.682C436.854 207.059 434.11 204.87 432.776 201.83L428.416 191.891C426.418 187.337 421.399 184.919 416.591 186.198L406.103 188.986C402.895 189.84 399.472 189.059 396.951 186.898L388.71 179.835C384.935 176.599 379.363 176.599 375.586 179.835L367.345 186.898C364.824 189.059 361.402 189.84 358.193 188.986L347.705 186.198C342.899 184.919 337.878 187.337 335.88 191.891L331.522 201.83C330.188 204.871 327.443 207.06 324.182 207.682L313.522 209.721C308.637 210.656 305.163 215.011 305.34 219.982L305.724 230.828C305.842 234.146 304.318 237.309 301.651 239.285L293.54 245.297H225.405C225.188 248.817 224.507 252.366 223.295 255.857 220.959 262.594 216.91 268.382 211.757 272.841 243.213 272.841 325.005 272.841 338.398 272.841 338.404 248.72 358.031 229.094 382.151 229.094ZM230.134 342.374C236.555 346.618 245.199 344.851 249.443 338.43L265.028 314.848C267.264 311.455 267.173 306.863 264.479 303.537 261.149 299.428 255.117 298.794 251.006 302.125L229.044 319.922C227.984 320.789 226.985 321.865 226.191 323.066 221.949 329.487 223.713 338.131 230.134 342.374ZM256.486 369.593C251.907 366.945 246.048 368.51 243.401 373.091L229.253 397.563C228.574 398.751 228.025 400.113 227.712 401.52 226.045 409.033 230.784 416.475 238.297 418.142 245.81 419.809 253.252 415.07 254.919 407.557L261.042 379.961C261.919 375.991 260.192 371.735 256.486 369.593ZM215.492 441.094C215.196 437.042 212.321 433.458 208.159 432.467 203.013 431.24 197.847 434.419 196.623 439.565L190.074 467.064C189.762 468.397 189.626 469.859 189.73 471.296 190.284 478.973 196.955 484.746 204.631 484.192 212.308 483.637 218.081 476.965 217.527 469.29L215.492 441.094ZM204.933 249.487C208.599 238.919 203.005 227.381 192.436 223.715L126.247 200.754 111.067 141.946 139.629 184.816 154.867 190.101 166.982 145.515C171.355 129.421 161.852 112.828 145.758 108.457L93.79 94.336C77.696 89.963 61.103 99.466 56.732 115.56L17.116 261.36C14.328 267.523 14.091 274.805 17.113 281.444L50.404 354.581 8.325 480.737C4.078 493.469 10.958 507.235 23.69 511.483 36.397 515.725 50.182 508.871 54.436 496.118L99.539 360.898C101.481 355.074 101.148 348.729 98.604 343.14L74.125 289.364C73.318 287.593 73.608 285.515 74.869 284.032 76.129 282.549 78.133 281.929 80.011 282.439 81.393 282.815 82.55 283.763 83.189 285.045L118.065 355.01V488.435C118.065 501.857 128.946 512.739 142.368 512.739S166.672 501.857 166.672 488.435V349.289C166.672 345.527 165.799 341.815 164.12 338.448L132.046 274.101 134.003 266.899 96.342 253.835C79.315 247.928 70.522 231.808 70.303 221.821L72.992 156.507 89.741 221.393C91.437 227.962 96.306 233.244 102.714 235.467L179.163 261.985C189.719 265.647 201.265 260.059 204.933 249.487Z"/></svg>