<svg xmlns="http://www.w3.org/2000/svg" viewBox="0 0 512 512"><path d="M124.203 287.813C121.824 286.811 119.157 286.507 116.693 287.168L56.715 303.104C51.579 304.491 46.859 309.92 46.859 315.243V393.072C46.859 404.656 56.683 414.053 68.256 414.053 79.829 414.053 89.525 404.645 89.525 393.072 89.525 393.072 89.525 363.323 89.525 347.493 89.525 342.171 93.941 336.736 99.077 335.365L135.419 325.659C137.787 325.024 139.979 324.437 141.621 323.973 141.243 322.715 140.837 321.547 140.363 320.587L124.203 287.813ZM329.312 337.669H267.696L259.392 339.963C254.261 341.381 248.773 346.64 247.136 351.701L233.819 392.923C238.139 394.88 240.992 396.176 240.997 396.176 247.392 399.099 252.267 404.331 254.72 410.912 257.168 417.483 256.907 424.613 253.984 430.992 252.747 433.707 251.029 436.107 249.029 438.197 257.733 437.803 265.632 432.043 268.203 423.211 268.203 423.211 276.544 394.656 280.981 379.461 282.475 374.352 287.216 367.723 291.557 364.656L327.403 339.376C328.267 338.768 328.853 338.213 329.312 337.669Z"/><path d="M515.749 315.275C506.896 322.613 499.12 326.277 492.571 326.277 484.677 326.277 478.571 320.955 474.496 310.336 474.011 309.099 474.752 307.92 476.075 307.728 491.637 305.456 496.832 303.349 500.4 297.317 501.003 296.293 500.581 295.557 499.547 295.557 499.435 295.557 499.291 295.568 499.157 295.589 497.28 295.877 495.445 296.08 493.664 296.08 488.976 296.08 484.688 294.672 481.429 289.776 478.048 284.704 474.779 279.557 471.659 274.715 471.045 273.755 471.296 273.12 472.208 273.12 472.357 273.12 472.533 273.141 472.72 273.179 475.776 273.776 478.997 274.235 482.379 274.235 486.453 274.235 490.763 273.568 495.355 271.669 496.581 271.163 496.491 270.485 495.2 270.197 479.264 266.549 468.768 256.533 459.787 245.307 442.597 223.787 403.093 215.504 402.288 215.333 375.376 209.781 342.683 207.264 311.936 206.331 314.837 195.664 313.76 183.851 307.536 174.933 307.216 174.475 306.939 174.155 306.72 174.155 306.421 174.155 306.267 174.357 306.32 175.109 307.632 192.048 303.669 201.925 294.789 205.221 289.755 205.168 284.821 204.347 280.032 204.347 279.6 204.347 279.168 204.347 278.736 204.347 277.536 204.347 277.051 203.563 277.621 202.427 284.651 188.576 285.92 183.979 283.077 177.664 282.811 177.072 282.437 176.784 282.064 176.784 281.675 176.784 281.275 177.088 280.981 177.685 278.021 183.627 274.373 188.683 266.683 188.683 266.528 188.683 266.352 188.683 266.187 188.677 260.176 188.512 254.16 188.224 248.469 187.979 247.163 187.925 246.885 187.163 247.835 186.256 252.741 181.563 257.52 175.909 259.509 167.147 259.685 166.357 259.536 165.941 259.163 165.941 258.928 165.941 258.608 166.107 258.235 166.443 247.328 176.213 234.645 178.299 221.909 180.219 227.755 172.939 231.221 163.872 230.469 154.704 230.411 154.011 230.213 153.664 229.952 153.664 229.723 153.664 229.44 153.941 229.173 154.496 222.48 168.336 214.805 175.307 206.491 175.307 201.253 175.307 195.76 172.539 190.096 166.981 189.163 166.059 189.339 164.709 190.443 163.995 203.488 155.568 207.291 151.552 208.021 144.661 208.117 143.776 207.739 143.28 207.152 143.28 206.869 143.28 206.544 143.392 206.187 143.621 202.613 145.979 198.965 147.872 195.04 147.872 192.757 147.872 190.384 147.232 187.877 145.68 182.763 142.507 177.717 139.232 172.923 136.16 171.813 135.451 171.957 134.656 173.237 134.352 179.84 132.763 186.821 130.288 192.949 123.717 193.696 122.917 193.568 122.4 192.768 122.4 192.608 122.4 192.421 122.421 192.203 122.464 189.051 123.115 186.016 123.397 183.067 123.397 171.205 123.397 160.779 118.779 150.197 114.624 139.2 110.304 127.952 108.096 116.533 108.096 114.059 108.096 111.573 108.197 109.083 108.411 107.637 105.685 106.464 102.869 105.877 100.501L100.795 79.936C100.133 77.253 99.072 75.899 97.899 75.899 96.816 75.899 95.637 77.061 94.608 79.403L92.256 84.784C90.944 87.755 86.805 93.179 82.987 96.896L80.267 99.547C76.459 103.264 69.776 108.667 65.339 111.616L11.152 147.648C0.661 153.653-3.147 167.205 2.88 177.749 6.875 184.88 14.315 188.869 21.899 188.869 23.211 188.869 24.523 188.752 25.824 188.507L66.848 180.699C67.515 180.571 68.192 180.512 68.88 180.512 73.584 180.512 78.533 183.376 80.587 187.541L145.173 318.24C147.536 323.013 149.019 331.179 148.475 336.469L142.725 393.248C142.181 398.544 145.68 404.651 150.517 406.859L221.296 439.243C224.101 440.523 227.045 441.147 229.947 441.147 234.251 441.147 238.432 439.792 241.947 437.365 244.971 435.285 247.515 432.427 249.147 428.853 253.963 418.331 249.317 405.989 238.795 401.184 238.795 401.184 236.171 400.005 232.128 398.192 223.173 394.165 207.253 386.997 197.344 382.464 192.507 380.256 189.051 374.651 189.621 369.36L193.205 338.784C193.781 333.488 198.565 332.341 203.883 332.341H341.92C347.243 332.341 348.565 332.309 344.88 336.144L331.344 347.68C327.659 351.515 326.901 358.016 329.664 362.571L369.696 428.485C373.643 435.013 380.544 438.597 387.509 438.597 391.051 438.597 394.613 437.669 397.813 435.733 407.312 429.989 410.229 417.227 404.277 407.397L380.923 368.581C378.176 364.027 375.936 360.251 375.936 360.187S378.619 356.715 381.989 352.587L397.435 333.536C400.805 329.413 403.456 321.755 403.552 316.432L404.677 256.085C404.677 256.085 405.285 246.896 405.563 241.888 413.419 247.883 419.707 250.128 424.528 259.056 428.144 265.76 431.525 272.688 434.021 279.856 439.339 295.088 443.653 305.349 449.173 320.512 451.019 325.579 454.395 330.944 458.613 334.149 464.507 338.624 471.68 340.656 478.981 340.656 494.901 340.656 511.472 331.008 516.875 316.032 517.163 315.253 517.056 314.827 516.688 314.827 516.448 314.805 516.128 314.96 515.749 315.275Z"/></svg>