<svg xmlns="http://www.w3.org/2000/svg" viewBox="0 0 512 512"><path d="M496.002 389.222C487.184 389.222 480.004 396.418 480.004 405.24 480.004 422.177 466.225 435.984 449.28 435.984H371.992V379.989H440.604C460.138 379.989 475.993 363.963 475.993 344.43V335.835C475.993 314.652 458.748 291.99 420.819 291.99H392.33C336.847 291.99 229.912 178.013 219.912 167.221L195.807 47.246C195.596 46.206 194.983 45.271 194.101 44.69 193.219 44.101 192.134 43.89 191.098 44.089L47.096 73.053C45.227 73.427 43.995 75.069 43.995 76.975V220.054C31.996 232.204 27.993 247.243 27.993 262.595V344.166C27.993 367.181 39.485 379.985 60.249 379.985H75.995V435.984H15.998C7.176 435.984 0 443.169 0 451.986 0 460.804 7.176 467.988 15.998 467.988H449.288C483.868 467.988 512.004 439.82 512.004 405.252 512 396.426 504.82 389.222 496.002 389.222ZM323.998 435.988H124.002V379.989H323.998V435.988Z"/></svg>