<svg xmlns="http://www.w3.org/2000/svg" viewBox="0 0 512 512"><path d="M177.666 317.481h-38.399c-5.84 0-11.002-4.049-12.424-9.686l-5.036-31.292c-1.569-9.75-10.742-16.377-20.493-14.811-9.749 1.569-16.38 10.744-14.811 20.493l5.134 31.898c.054.33.116.66.188.988 4.849 22.116 24.801 38.167 47.441 38.167h38.399c9.874 0 17.879-8.005 17.879-17.879S187.54 317.481 177.666 317.481zM496.914 450.91H29.463c-8.319 0-15.086 6.767-15.086 15.086 0 8.318 6.768 15.086 15.086 15.086h467.45c8.319 0 15.086-6.768 15.086-15.086C512 457.678 505.232 450.91 496.914 450.91z"/><path d="M484.161,355.973l-40.787-30.949c-24.66-18.711-54.766-28.84-85.721-28.84h-45.118c0,9.626-1.917,18.803-5.371,27.182 l-46.767-31.458l2.946-4.38c5.511-8.193,3.337-19.302-4.856-24.814c-8.193-5.51-19.302-3.337-24.814,4.856l-12.923,19.212 c-0.001,0.001-0.002,0.002-0.002,0.004c0,0.001-0.001,0.002-0.002,0.004l-12.923,19.212c-5.512,8.193-3.337,19.302,4.856,24.814 c3.062,2.06,6.531,3.047,9.962,3.047c5.751,0,11.4-2.771,14.852-7.903l2.946-4.38l45.21,30.411 c-12.209,9.752-27.675,15.596-44.516,15.596H130.468c-30.519,0-55.26-24.741-55.26-55.26v-23.525 c0-10.472-6.028-19.531-14.799-23.913V79.407c0-26.737-21.753-48.489-48.489-48.489C5.336,30.918,0,36.255,0,42.837 s5.336,11.919,11.919,11.919c13.593,0,24.65,11.058,24.65,24.65v185.483c-8.773,4.382-14.8,13.44-14.8,23.913v139.036v11.152 h475.144v0h2.553v-11.826v-40.364C499.467,374.696,493.804,363.29,484.161,355.973z"/></svg>