<svg xmlns="http://www.w3.org/2000/svg" viewBox="0 0 512 512"><path d="M455.37,49.632V21.031C455.37,9.416,445.954,0,434.339,0H77.662C66.046,0,56.631,9.416,56.631,21.031v28.601 c0,11.589,9.375,20.985,20.954,21.027l121.264,40.119L85.435,145.713c-7.604,2.341-12.5,9.664-11.802,17.596 c0.003,0.034,0.002,0.067,0.006,0.101c0.608,6.447,5.049,12.427,11.797,14.505l113.414,34.936L85.435,247.787 c-7.427,2.287-12.107,9.25-11.846,16.662c-0.26,7.412,4.42,14.374,11.846,16.662l113.414,34.936 C77.313,353.482,85.033,351.05,83.687,351.634h-6.026c-11.615,0-21.031,9.416-21.031,21.031v52.155 c0,11.615,9.415,21.031,21.031,21.031h42.272c-11.723,5.586-19.827,17.541-19.827,31.392c0,19.197,15.562,34.757,34.757,34.757 s34.757-15.562,34.757-34.757c0-13.851-8.104-25.807-19.827-31.392h204.081c-11.723,5.586-19.827,17.541-19.827,31.392 c0,19.197,15.562,34.757,34.757,34.757s34.757-15.562,34.757-34.757c0-13.851-8.104-25.807-19.827-31.392h50.601 c11.615,0,21.031-9.416,21.031-21.031v-52.155c0-11.615-9.416-21.031-21.031-21.031h-6.026c-0.565-0.245-1.145-0.466-1.747-0.651 l-113.412-34.937l113.414-34.936c7.427-2.287,12.107-9.25,11.846-16.662c0.26-7.412-4.42-14.374-11.846-16.662L313.151,212.85 l113.414-34.936c7.218-2.223,11.881-8.948,11.873-16.101c0.008-7.212-4.646-13.875-11.873-16.101l-113.414-34.935l121.264-40.119 C445.994,70.617,455.37,61.221,455.37,49.632z M314.377,351.634H197.622l58.378-17.982L314.377,351.634z M366.35,264.448 L255.999,298.44l-110.351-33.992l110.351-33.992L366.35,264.448z M364.529,161.814l-108.53,33.431l-108.53-33.431l108.53-33.431 L364.529,161.814z M256.001,93.171l-73.077-22.51h146.152L256.001,93.171z"/></svg>