<svg xmlns="http://www.w3.org/2000/svg" viewBox="0 0 512 512"><path d="M503.56 167.948H480.013C475.352 167.948 471.573 171.726 471.573 176.388S475.352 184.827 480.013 184.827H495.121V439.982H131.491V425.775C131.491 421.113 127.712 417.335 123.051 417.335S114.611 421.113 114.611 425.775V448.422C114.611 453.084 118.39 456.862 123.051 456.862H503.56C508.221 456.862 512 453.084 512 448.422V176.388C512 171.726 508.221 167.948 503.56 167.948Z"/><path d="M454.694 392.016V119.984C454.694 115.322 450.916 111.544 446.255 111.544H422.707C418.046 111.544 414.268 115.322 414.268 119.984S418.046 128.423 422.707 128.423H437.815V383.577H74.185V369.37C74.185 364.708 70.406 360.931 65.745 360.931S57.306 364.708 57.306 369.37V392.016C57.306 396.678 61.084 400.456 65.745 400.456H446.255C450.916 400.456 454.694 396.678 454.694 392.016Z"/><path d="M397.389 335.612V63.578C397.389 58.916 393.61 55.138 388.949 55.138H8.44C3.779 55.138 0 58.916 0 63.578V335.612C0 340.274 3.779 344.052 8.44 344.052H388.949C393.61 344.052 397.389 340.274 397.389 335.612ZM380.509 327.173H16.879V72.018H380.509V327.173Z"/></svg>