<svg xmlns="http://www.w3.org/2000/svg" viewBox="0 0 512 512"><path d="M154.618 242.052L77.839 262.626 56.869 184.367 0 283.304 13.078 305.905 117.916 305.905ZM307.872 395.921L202.991 291.039 202.306 291.039 202.306 339.515 32.525 339.515 98.195 453.01 202.306 453.01 202.306 501.487ZM313.101 168.182L334.771 87.308 408.947 107.183 352.963 11.33 326.864 11.33 274.788 101.529Z"/><path d="M244.875 183.072L245.217 182.479 203.236 158.24 288.126 11.33 157.003 11.33 104.945 101.494 62.965 77.255 101.605 221.461ZM299 339.515L355.404 395.921 298.316 453.01 411.986 453.01 426.93 426.96 376.443 339.515ZM460.762 191.349L502.744 167.111 358.538 128.472 320.148 271.742 320.491 272.335 362.472 248.097 447.363 395.132 512.817 281.513Z"/></svg>