<svg xmlns="http://www.w3.org/2000/svg" viewBox="0 0 512 512"><path d="M143.849 420.027C149.897 429.613 153.091 440.66 153.091 452.02 153.091 485.131 126.151 512.071 93.04 512.071S32.99 485.131 32.99 452.02C32.99 440.615 36.208 429.525 42.302 419.911L76.765 361.727C80.172 355.976 86.356 352.45 93.04 352.45 99.721 352.45 105.911 355.976 109.316 361.727L143.849 420.027ZM480.508 109.402H356.826V106.816C356.826 96.369 348.359 87.9 337.91 87.9H309.578V71.519H386.911C397.36 71.519 405.827 63.049 405.827 52.602V41.881C405.824 18.788 387.037 0 363.944 0H191.728C168.635 0 149.847 18.788 149.847 41.881V52.602C149.847 63.049 158.316 71.519 168.763 71.519H246.098V87.9H217.761C207.315 87.9 198.845 96.369 198.845 106.816V109.402H148.404C79.912 109.402 24.19 165.124 24.19 233.618V297.162C17.405 300.035 12.644 306.756 12.644 314.587 12.644 325.034 21.113 333.504 31.56 333.504H43.106 133.183 143.532C153.978 333.504 162.448 325.034 162.448 314.587 162.448 307.228 158.236 300.864 152.099 297.737V255.031C152.099 243.861 161.187 234.773 172.357 234.773H198.845V241.197C198.845 251.644 207.315 260.114 217.761 260.114H337.907C348.357 260.114 356.824 251.644 356.824 241.197V240.368H480.506C490.955 240.368 499.422 231.898 499.422 221.451V128.318C499.424 117.871 490.955 109.402 480.508 109.402Z"/></svg>