<svg xmlns="http://www.w3.org/2000/svg" viewBox="0 0 512 512"><path d="M320.745 323.887C334.825 330.799 349.068 338.828 363.59 348.02 378.065 357.167 391.68 367.546 404.294 379.043 417.001 390.609 428.404 402.921 438.575 416 448.675 429.079 456.797 442.764 462.988 457.03L443.718 471.668 429.149 483.119 413.3 495.919 390.819 513.792C372.899 481.792 352.884 456.727 330.775 438.505 308.666 420.329 282.787 407.785 253.044 400.873 244.527 411.229 234.543 421.958 223.046 432.989 211.479 444.044 198.26 454.516 183.319 464.407 168.332 474.298 151.808 483.514 133.748 492.055 115.689 500.55 95.814 507.578 74.147 513.094 68.864 503.343 64.582 495.104 61.463 488.448L52.131 469.574C49.315 463.616 46.708 457.728 44.311 451.91 41.868 446.068 39.052 439.459 35.84 432.081 53.341 428.241 68.352 423.796 80.756 418.653 93.231 413.556 104.332 407.203 114.269 399.569 124.113 391.959 133.097 382.65 141.196 371.712 149.225 360.774 157.58 347.229 166.051 331.008 166.051 327.959 165.981 324.817 165.679 321.745 165.679 306.036 166.749 290.304 168.82 274.641 171.101 255.814 175.104 238.359 180.759 222.324 186.415 206.243 193.862 191.744 203.008 178.758 212.201 165.818 223.279 155.648 236.125 148.271 242.804 150.156 250.205 153.111 258.234 157.184L282.787 168.96 304.524 179.316C311.18 182.365 316.16 184.576 319.348 185.74 318.464 189.556 319.767 193.396 323.351 197.329 326.959 201.286 334.127 204.428 344.925 206.778 349.044 207.732 354.467 208.663 361.146 209.455 367.802 210.292 375.156 210.06 383.092 208.733 391.052 207.476 399.616 205.033 408.809 201.449 418.071 197.888 427.334 191.93 436.829 183.599 442.554 191.93 447.86 200.029 452.655 207.849L465.827 229.655 477.929 249.972C463.919 262.586 448.559 273.082 431.942 281.414 417.932 288.791 401.478 294.4 382.58 298.17 374.807 299.846 366.592 300.684 358.121 300.684 346.554 300.684 334.615 299.171 322.141 296.076 322.141 301.545 322.071 305.804 321.862 308.876L320.745 323.887ZM330.799 133.609C319.93 133.609 309.83 131.91 300.404 128.559 290.932 125.184 282.74 120.436 275.689 114.339 268.66 108.241 263.075 101.12 258.769 93.021 254.511 84.922 252.463 76.335 252.463 67.281 252.463 58.205 254.511 49.571 258.793 41.332 263.098 33.14 268.66 25.879 275.712 19.572 282.74 13.219 290.932 8.401 300.428 5.05 309.807 1.676 319.93 0 330.799 0 341.574 0 351.837 1.676 361.542 5.05 371.2 8.401 379.695 13.219 387.095 19.572 394.449 25.879 400.198 33.14 404.317 41.332 408.553 49.571 410.508 58.205 410.508 67.281 410.508 76.335 408.553 84.922 404.317 93.021 400.198 101.12 394.449 108.241 387.095 114.339 379.695 120.436 371.177 125.184 361.542 128.559 351.814 131.91 341.551 133.609 330.799 133.609Z"/></svg>