<svg xmlns="http://www.w3.org/2000/svg" viewBox="0 0 512 512"><path d="M505.138 435.491H7.719C3.455 435.491 0 432.035 0 427.772V85.085C0 80.821 3.455 77.366 7.719 77.366H505.138C509.401 77.366 512.857 80.821 512.857 85.085V427.772C512.857 432.038 509.404 435.491 505.138 435.491ZM15.437 420.054H497.42V92.803H15.437V420.054ZM424.296 366.785H296.476C292.213 366.785 288.758 363.33 288.758 359.066V321.883C288.758 317.62 292.213 314.165 296.476 314.165S304.195 317.62 304.195 321.883V351.348H416.578V161.509H304.195V189.81C304.195 194.074 300.74 197.529 296.476 197.529S288.758 194.074 288.758 189.81V153.79C288.758 149.527 292.213 146.072 296.476 146.072H424.296C428.559 146.072 432.015 149.527 432.015 153.79V359.066C432.015 363.332 428.559 366.785 424.296 366.785ZM334.678 318.523C332.728 318.523 330.778 317.79 329.278 316.321 326.229 313.339 326.18 308.45 329.162 305.407L344.18 290.07H88.563C84.3 290.07 80.845 286.615 80.845 282.351V230.511C80.845 226.247 84.3 222.792 88.563 222.792H343.107L328.712 208.695C325.663 205.713 325.614 200.825 328.596 197.781 331.58 194.732 336.471 194.686 339.51 197.665L393.888 250.913C395.336 252.334 396.108 254.184 396.195 256.059 396.195 256.059 396.198 256.059 396.198 256.062 396.198 256.067 396.198 256.075 396.198 256.08 396.198 256.082 396.198 256.085 396.198 256.09 396.198 256.093 396.198 256.098 396.198 256.1 396.198 256.105 396.198 256.111 396.198 256.116 396.198 256.118 396.201 256.121 396.201 256.121 396.201 256.129 396.201 256.134 396.201 256.142L396.201 256.142C396.203 256.237 396.206 256.334 396.206 256.43 396.206 256.466 396.206 256.497 396.206 256.533 396.206 256.535 396.206 256.535 396.206 256.538 396.206 256.543 396.206 256.551 396.206 256.556S396.206 256.566 396.203 256.569C396.203 256.574 396.203 256.576 396.203 256.579 396.167 258.478 395.434 260.369 394.003 261.83 393.936 261.9 393.864 261.969 393.797 262.033L384.738 270.714 340.192 316.205C338.679 317.749 336.68 318.523 334.678 318.523ZM96.282 274.63H358.341L373.881 259.738 377.223 256.324 358.341 238.229H96.282V274.63Z"/></svg>