<svg xmlns="http://www.w3.org/2000/svg" viewBox="0 0 512 512"><path d="M306.304 3.602C243.675 3.602 187.557 31.451 149.266 75.264 162.962 72.082 177.115 70.181 191.598 69.504 190.738 67.712 189.952 66.085 189.294 64.658 221.495 39.095 262.071 23.717 306.286 23.717 318.958 23.717 331.355 25.015 343.314 27.41 332.05 41.326 314.789 65.883 307.529 93.586 312.357 95.963 317.056 98.469 321.627 101.138 328.338 70.729 349.861 42.935 359.643 31.543 392.503 41.271 421.559 59.758 444.288 84.242 428.526 91.685 397.714 107.337 361.966 130.779 365.751 134.254 369.499 137.765 373.047 141.477 410.112 117.431 441.253 102.199 454.473 96.128 475.502 122.953 489.545 155.557 493.568 191.195 478.043 193.682 444.928 197.76 411.429 193.938 414.226 199.113 416.695 204.453 419.109 209.847 426.35 210.395 433.554 210.743 440.411 210.743 462.976 210.743 482.725 208.256 494.519 206.354 494.592 208.347 494.848 210.286 494.848 212.297 494.848 266.295 471.753 314.77 435.237 349.166 433.097 360.667 430.025 371.84 426.277 382.702 479.817 344.905 514.962 282.642 514.962 212.297 514.962 97.225 421.358 3.602 306.304 3.602Z"/><path d="M381.257 185.545C352.768 143.689 309.394 112.878 258.853 100.334 242.725 96.366 225.993 93.989 208.677 93.989 186.24 93.989 164.663 97.646 144.402 104.229 95.433 120.119 54.491 153.691 28.8 197.339 14.683 221.385 5.193 248.448 1.682 277.394 0.658 285.696 0 294.089 0 302.647 0 348.818 15.25 391.406 40.722 426.002 65.957 460.251 101.266 486.546 142.373 500.352 163.255 507.374 185.472 511.36 208.677 511.36 240.018 511.36 269.659 504.192 296.338 491.794 325.358 478.263 350.811 458.459 370.706 433.883 399.835 397.97 417.353 352.366 417.353 302.647 417.353 298.971 416.987 295.351 416.786 291.657 414.757 252.489 402.066 216.101 381.257 185.545ZM374.473 291.675L331.538 365.952 359.79 414.939C340.791 440.466 315.557 461.038 286.263 474.35L264.741 437.047H178.926L152.558 482.706C111.579 469.925 76.562 443.465 52.882 408.722L85.815 351.689 42.898 277.394H21.979C25.947 248.064 36.462 220.8 52.315 197.376H112.329L155.246 123.045 154.715 122.057C171.813 116.937 189.897 114.085 208.658 114.085 222.299 114.085 235.575 115.621 248.393 118.382L245.723 123.026 288.622 197.303H365.038C383.415 224.53 394.642 256.878 396.654 291.639L374.473 291.675 374.473 291.675Z"/><path d="M165.742 225.847L122.843 300.16 165.742 374.473 251.557 374.473 294.473 300.16 251.557 225.847Z"/></svg>