<svg xmlns="http://www.w3.org/2000/svg" viewBox="0 0 512 512"><path d="M503.706 475.612C488.675 475.612 480.615 481.374 474.14 486.005 468.436 490.084 463.932 493.305 454.22 493.305 444.501 493.305 439.994 490.082 434.288 486.004 427.81 481.373 419.747 475.612 404.71 475.612 389.668 475.612 381.603 481.373 375.122 486.003 369.412 490.082 364.902 493.305 355.178 493.305 345.453 493.305 340.942 490.082 335.233 486.003 328.753 481.373 320.687 475.612 305.645 475.612S282.538 481.373 276.058 486.003C270.347 490.082 265.837 493.305 256.112 493.305 255.873 493.305 255.652 493.294 255.419 493.29 255.43 493.111 255.447 492.934 255.447 492.752V406.94L433.462 458.902C439.073 460.531 444.838 461.356 450.599 461.356 477.719 461.356 501.946 443.148 509.516 417.07 509.574 416.869 509.625 416.67 509.67 416.464 510.714 412.177 508.206 407.792 503.934 406.545L427.336 384.186C403.746 377.336 390.03 352.54 396.762 328.911 398.012 324.526 395.487 319.955 391.11 318.676L344.523 305.077C359.852 297.641 371.91 283.968 376.854 266.933 385.363 237.618 370.922 206.993 344.158 194.35 361.41 186.139 374.449 170.048 378.235 150.243 384.101 119.56 364.268 88.433 333.082 79.38L69.274 2.79C60.196 0.155 50.669 5.394 48.034 14.472L23.368 99.433C22.092 103.831 22.604 108.461 24.81 112.473 27.018 116.484 30.654 119.397 35.05 120.673L78.293 133.226C77.535 133.603 76.78 133.987 76.034 134.397 61.661 142.3 51.225 155.323 46.652 171.07 38.126 200.443 52.638 231.132 79.503 243.73 78.336 244.28 77.176 244.855 76.036 245.482 61.662 253.384 51.227 266.407 46.653 282.153 46.653 282.153 46.653 282.154 46.653 282.154 37.219 314.652 55.984 348.768 88.471 358.2L203.473 391.768V475.703C190.399 476.432 183.004 481.702 176.985 486.004 171.277 490.082 166.768 493.305 157.047 493.305 147.313 493.305 142.8 490.082 137.086 486.002 130.602 481.373 122.533 475.612 107.486 475.612 92.431 475.612 84.357 481.372 77.87 486.001 72.151 490.081 67.633 493.305 57.889 493.305S43.628 490.081 37.908 486.001C31.421 481.372 23.347 475.612 8.293 475.612 3.712 475.612-0.001 479.325-0.001 483.905S3.712 492.199 8.293 492.199C18.036 492.199 22.553 495.422 28.274 499.503 34.761 504.132 42.834 509.892 57.889 509.892S81.018 504.132 87.504 499.503C93.224 495.422 97.742 492.199 107.486 492.199 117.219 492.199 121.733 495.421 127.447 499.502 133.931 504.131 142 509.892 157.047 509.892 172.086 509.892 180.15 504.13 186.628 499.5 192.336 495.421 196.845 492.199 206.566 492.199 216.295 492.199 220.806 495.421 226.519 499.501 233 504.131 241.067 509.892 256.112 509.892 271.153 509.892 279.219 504.131 285.699 499.501 291.41 495.421 295.919 492.199 305.644 492.199S319.879 495.421 325.589 499.501C332.069 504.131 340.135 509.892 355.177 509.892 370.218 509.892 378.284 504.131 384.764 499.501 390.475 495.421 394.984 492.199 404.709 492.199 414.427 492.199 418.934 495.42 424.64 499.5 431.118 504.131 439.181 509.892 454.219 509.892 469.251 509.892 477.311 504.129 483.787 499.499 489.49 495.42 493.995 492.199 503.706 492.199 508.287 492.199 512 488.486 512 483.905S508.288 475.612 503.706 475.612ZM361.942 147.128C357.892 168.312 339.386 183.689 317.939 183.689 313.743 183.689 309.533 183.085 305.426 181.892L74.818 114.945 99.792 28.923 328.457 95.309C351.508 102.002 366.217 124.763 361.942 147.128ZM39.298 104.059L39.298 104.059 63.964 19.098C64.033 18.857 64.255 18.699 64.494 18.699 64.545 18.699 64.597 18.705 64.649 18.721L83.862 24.298 58.888 110.321 39.675 104.743C39.382 104.658 39.213 104.351 39.298 104.059ZM62.58 175.696C65.919 164.206 73.534 154.701 84.026 148.933 90.731 145.247 98.094 143.37 105.533 143.37 109.725 143.37 113.943 143.966 118.078 145.17L330.399 206.816C354.114 213.701 367.807 238.595 360.924 262.31 355.4 281.338 337.724 294.627 317.938 294.627 313.742 294.627 309.532 294.023 305.425 292.83L93.105 231.187C69.391 224.302 55.697 199.409 62.58 175.696ZM62.581 286.779C65.92 275.289 73.536 265.786 84.026 260.019 94.511 254.255 106.604 252.919 118.069 256.255L379.085 332.446C374.798 362.218 393.065 391.509 422.701 400.113L490.647 419.947C483.167 434.879 467.667 444.77 450.599 444.77 446.403 444.77 442.193 444.165 438.097 442.976L93.105 342.273C69.391 335.388 55.697 310.493 62.581 286.779ZM220.06 477.456V396.611L238.86 402.098V487.898C237.973 487.295 237.083 486.661 236.16 486.003 231.956 483 227.07 479.529 220.06 477.456Z"/><path d="M120.988 71.924L135.284 76.075C136.056 76.299 136.834 76.405 137.6 76.405 141.195 76.405 144.508 74.049 145.561 70.422 146.838 66.023 144.307 61.421 139.908 60.145L125.611 55.995C121.212 54.718 116.611 57.249 115.335 61.648S116.589 70.648 120.988 71.924ZM174.063 87.334L209.453 97.61C210.226 97.834 211.004 97.94 211.77 97.94 215.365 97.94 218.678 95.584 219.731 91.957 221.008 87.558 218.477 82.956 214.079 81.679L178.689 71.404C174.287 70.126 169.689 72.658 168.412 77.055 167.134 81.456 169.666 86.057 174.063 87.334ZM156.38 193.138L235.992 216.252C236.765 216.476 237.543 216.583 238.309 216.583 241.904 216.583 245.217 214.226 246.27 210.599 247.547 206.2 245.016 201.599 240.618 200.321L161.006 177.207C156.606 175.93 152.005 178.461 150.728 182.859 149.451 187.259 151.982 191.861 156.38 193.138ZM108.19 179.146L120.985 182.86C121.758 183.085 122.535 183.191 123.301 183.191 126.896 183.191 130.209 180.834 131.262 177.207 132.539 172.808 130.008 168.207 125.61 166.93L112.816 163.215C108.414 161.938 103.815 164.469 102.538 168.867 101.261 173.268 103.792 177.869 108.19 179.146ZM284.864 324.526L161.018 288.375C156.622 287.094 152.016 289.616 150.733 294.013 149.449 298.41 151.973 303.016 156.37 304.298L280.217 340.449C280.993 340.676 281.775 340.783 282.544 340.783 286.135 340.783 289.445 338.432 290.502 334.812 291.785 330.415 289.261 325.81 284.864 324.526ZM125.627 278.045L112.827 274.308C108.433 273.026 103.825 275.548 102.542 279.946 101.258 284.342 103.782 288.948 108.179 290.231L120.979 293.968C121.755 294.194 122.537 294.302 123.307 294.302 126.897 294.302 130.207 291.951 131.264 288.33 132.548 283.933 130.025 279.329 125.627 278.045Z"/></svg>